<svg width="1200" height="340" viewBox="0 0 1200 340" fill="none" xmlns="http://www.w3.org/2000/svg">
  <defs>
    <linearGradient id="bg" x1="0" y1="0" x2="1200" y2="340" gradientUnits="userSpaceOnUse">
      <stop offset="0" stop-color="#080c12"/>
      <stop offset="0.3" stop-color="#0d1520"/>
      <stop offset="0.7" stop-color="#101d2e"/>
      <stop offset="1" stop-color="#080c12"/>
    </linearGradient>
    <linearGradient id="accent" x1="0" y1="0" x2="1" y2="1">
      <stop offset="0" stop-color="#0ef0ff"/>
      <stop offset="0.5" stop-color="#10c7d8"/>
      <stop offset="1" stop-color="#2ec4b6"/>
    </linearGradient>
    <linearGradient id="gold" x1="0" y1="0" x2="1" y2="1">
      <stop offset="0" stop-color="#f0c040"/>
      <stop offset="1" stop-color="#e0a030"/>
    </linearGradient>
    <filter id="glow">
      <feGaussianBlur stdDeviation="6" result="blur"/>
      <feMerge>
        <feMergeNode in="blur"/>
        <feMergeNode in="SourceGraphic"/>
      </feMerge>
    </filter>
    <filter id="softglow">
      <feGaussianBlur stdDeviation="3" result="blur"/>
      <feMerge>
        <feMergeNode in="blur"/>
        <feMergeNode in="SourceGraphic"/>
      </feMerge>
    </filter>
    <clipPath id="bannerClip">
      <rect width="1200" height="340" rx="0"/>
    </clipPath>
  </defs>

  <g clip-path="url(#bannerClip)">
    <!-- Background -->
    <rect width="1200" height="340" fill="url(#bg)"/>

    <!-- Subtle grid pattern -->
    <g opacity="0.04" stroke="#0ef0ff" stroke-width="0.5">
      <line x1="0" y1="40" x2="1200" y2="40"/>
      <line x1="0" y1="80" x2="1200" y2="80"/>
      <line x1="0" y1="120" x2="1200" y2="120"/>
      <line x1="0" y1="160" x2="1200" y2="160"/>
      <line x1="0" y1="200" x2="1200" y2="200"/>
      <line x1="0" y1="240" x2="1200" y2="240"/>
      <line x1="0" y1="280" x2="1200" y2="280"/>
      <line x1="0" y1="320" x2="1200" y2="320"/>
      <line x1="100" y1="0" x2="100" y2="340"/>
      <line x1="200" y1="0" x2="200" y2="340"/>
      <line x1="300" y1="0" x2="300" y2="340"/>
      <line x1="400" y1="0" x2="400" y2="340"/>
      <line x1="500" y1="0" x2="500" y2="340"/>
      <line x1="600" y1="0" x2="600" y2="340"/>
      <line x1="700" y1="0" x2="700" y2="340"/>
      <line x1="800" y1="0" x2="800" y2="340"/>
      <line x1="900" y1="0" x2="900" y2="340"/>
      <line x1="1000" y1="0" x2="1000" y2="340"/>
      <line x1="1100" y1="0" x2="1100" y2="340"/>
    </g>

    <!-- Decorative geometric elements -->
    <circle cx="1050" cy="70" r="140" fill="url(#accent)" opacity="0.06"/>
    <circle cx="1050" cy="70" r="90" stroke="url(#accent)" stroke-width="1" fill="none" opacity="0.12"/>
    <circle cx="150" cy="280" r="100" fill="url(#accent)" opacity="0.05"/>
    <circle cx="150" cy="280" r="60" stroke="url(#accent)" stroke-width="1" fill="none" opacity="0.08"/>

    <!-- Circuit-like decorative lines -->
    <g opacity="0.15" stroke="url(#accent)" stroke-width="1.5" fill="none">
      <path d="M0 260 H200 L240 220 H380"/>
      <circle cx="380" cy="220" r="3" fill="#0ef0ff"/>
      <path d="M820 300 H950 L980 270 H1100 L1130 240 H1200"/>
      <circle cx="950" cy="300" r="3" fill="#0ef0ff"/>
      <circle cx="1100" cy="270" r="3" fill="#0ef0ff"/>
    </g>

    <!-- Accent line top -->
    <rect x="0" y="0" width="1200" height="3" fill="url(#accent)" opacity="0.7"/>

    <!-- Main text block -->
    <text x="80" y="105" fill="#ffffff" font-size="52" font-weight="800" font-family="'Inter', 'Segoe UI', system-ui, sans-serif" letter-spacing="-1">Sean Vasey</text>

    <!-- Tagline with separator dots -->
    <g filter="url(#softglow)">
      <text x="80" y="148" fill="#0ef0ff" font-size="18" font-weight="600" font-family="'Inter', 'Segoe UI', system-ui, sans-serif" letter-spacing="2">
        VASEY/AI
      </text>
    </g>
    <circle cx="205" cy="143" r="3" fill="#0ef0ff" opacity="0.5"/>
    <text x="220" y="148" fill="#7fbfca" font-size="18" font-weight="500" font-family="'Inter', 'Segoe UI', system-ui, sans-serif" letter-spacing="1">
      Vasey Multimedia
    </text>

    <!-- Description -->
    <text x="80" y="195" fill="#b0d4dc" font-size="15" font-weight="400" font-family="'Inter', 'Segoe UI', system-ui, sans-serif">
      AI-powered creative tools · Prompt engineering · Media utilities
    </text>

    <!-- Tech pills -->
    <g transform="translate(80, 220)">
      <rect x="0" y="0" width="80" height="26" rx="13" fill="#0ef0ff" opacity="0.12" stroke="#0ef0ff" stroke-width="0.8" stroke-opacity="0.3"/>
      <text x="40" y="17" fill="#8de8f0" font-size="11" font-weight="600" font-family="'Inter', 'Segoe UI', system-ui, sans-serif" text-anchor="middle">AI / LLM</text>

      <rect x="92" y="0" width="90" height="26" rx="13" fill="#0ef0ff" opacity="0.12" stroke="#0ef0ff" stroke-width="0.8" stroke-opacity="0.3"/>
      <text x="137" y="17" fill="#8de8f0" font-size="11" font-weight="600" font-family="'Inter', 'Segoe UI', system-ui, sans-serif" text-anchor="middle">JavaScript</text>

      <rect x="194" y="0" width="90" height="26" rx="13" fill="#0ef0ff" opacity="0.12" stroke="#0ef0ff" stroke-width="0.8" stroke-opacity="0.3"/>
      <text x="239" y="17" fill="#8de8f0" font-size="11" font-weight="600" font-family="'Inter', 'Segoe UI', system-ui, sans-serif" text-anchor="middle">TypeScript</text>

      <rect x="296" y="0" width="56" height="26" rx="13" fill="#0ef0ff" opacity="0.12" stroke="#0ef0ff" stroke-width="0.8" stroke-opacity="0.3"/>
      <text x="324" y="17" fill="#8de8f0" font-size="11" font-weight="600" font-family="'Inter', 'Segoe UI', system-ui, sans-serif" text-anchor="middle">PWA</text>

      <rect x="364" y="0" width="70" height="26" rx="13" fill="#0ef0ff" opacity="0.12" stroke="#0ef0ff" stroke-width="0.8" stroke-opacity="0.3"/>
      <text x="399" y="17" fill="#8de8f0" font-size="11" font-weight="600" font-family="'Inter', 'Segoe UI', system-ui, sans-serif" text-anchor="middle">Audio</text>
    </g>

    <!-- Right side: project count badge -->
    <g transform="translate(920, 100)">
      <rect x="0" y="0" width="200" height="80" rx="12" fill="#0d1520" stroke="url(#accent)" stroke-width="1" opacity="0.8"/>
      <text x="100" y="35" fill="#0ef0ff" font-size="32" font-weight="800" font-family="'Inter', 'Segoe UI', system-ui, sans-serif" text-anchor="middle">6</text>
      <text x="100" y="58" fill="#7fbfca" font-size="13" font-weight="500" font-family="'Inter', 'Segoe UI', system-ui, sans-serif" text-anchor="middle">LIVE PROJECTS</text>
    </g>

    <!-- Bottom accent line -->
    <rect x="0" y="337" width="1200" height="3" fill="url(#accent)" opacity="0.7"/>
  </g>
</svg>